<svg viewBox="0 0 320 48" xmlns="http://www.w3.org/2000/svg" xmlns:xlink="http://www.w3.org/1999/xlink"><style>/* font fetch failed — fallback to local */</style><g transform="scale(0.55) translate(4, 4)"><g><defs><filter id="ol-l-glow"><feGaussianBlur stdDeviation="2.5" result="b"/><feMerge><feMergeNode in="b"/><feMergeNode in="SourceGraphic"/></feMerge></filter><linearGradient id="ol-l-g1" x1="0" y1="0" x2="1" y2="0"><stop offset="0%" stop-color="#A855F7"/><stop offset="100%" stop-color="#00D4FF"/></linearGradient><linearGradient id="ol-l-g2" x1="1" y1="0" x2="0" y2="1"><stop offset="0%" stop-color="#A855F7"/><stop offset="100%" stop-color="#00D4FF"/></linearGradient></defs><g filter="url(#ol-l-glow)"><line x1="40" y1="40" x2="20" y2="18" stroke="url(#ol-l-g1)" stroke-width="1.4" opacity="0.6"/><line x1="40" y1="40" x2="62" y2="14" stroke="url(#ol-l-g1)" stroke-width="1.4" opacity="0.6"/><line x1="40" y1="40" x2="16" y2="62" stroke="url(#ol-l-g2)" stroke-width="1.4" opacity="0.6"/><line x1="40" y1="40" x2="66" y2="56" stroke="url(#ol-l-g2)" stroke-width="1.4" opacity="0.6"/><line x1="40" y1="40" x2="56" y2="34" stroke="url(#ol-l-g1)" stroke-width="1.2" opacity="0.5"/><line x1="56" y1="34" x2="72" y2="18" stroke="#00D4FF" stroke-width="1" opacity="0.35"/><line x1="20" y1="18" x2="62" y2="14" stroke="#22D3EE" stroke-width="0.7" opacity="0.22"/><line x1="16" y1="62" x2="66" y2="56" stroke="#22D3EE" stroke-width="0.7" opacity="0.22"/><circle cx="40" cy="40" r="5.5" fill="#A855F7"/><circle cx="20" cy="18" r="3.5" fill="#00D4FF" opacity="0.75"/><circle cx="62" cy="14" r="3" fill="#22D3EE" opacity="0.7"/><circle cx="16" cy="62" r="3" fill="#00D4FF" opacity="0.65"/><circle cx="66" cy="56" r="3.5" fill="#22D3EE" opacity="0.75"/><circle cx="56" cy="34" r="2.2" fill="#67E8F9" opacity="0.55"/><circle cx="72" cy="18" r="2" fill="#00D4FF" opacity="0.4"/></g><circle cx="41.5" cy="38.5" r="2" fill="#fff" opacity="0.6"/></g></g><text x="58" y="31" font-family="'Archivo Black', 'Oswald', 'Inter', sans-serif" font-size="18" letter-spacing="3" font-weight="400" filter="url(#ol-l-glow)"><tspan fill="#A855F7">OP</tspan><tspan fill="#1a1a2e">STELLAR</tspan></text></svg>