<svg viewBox="0 0 1500 500" xmlns="http://www.w3.org/2000/svg" xmlns:xlink="http://www.w3.org/1999/xlink"><style>/* font fetch failed — fallback to local */</style><defs><filter id="tw-cov-glow" x="-25%" y="-25%" width="150%" height="150%"><feGaussianBlur stdDeviation="9" result="b"/><feMerge><feMergeNode in="b"/><feMergeNode in="SourceGraphic"/></feMerge></filter><filter id="tw-cov-glow-lg" x="-50%" y="-50%" width="200%" height="200%"><feGaussianBlur stdDeviation="18" result="b"/><feMerge><feMergeNode in="b"/><feMergeNode in="SourceGraphic"/></feMerge></filter><linearGradient id="tw-cov-g1" x1="0" y1="0" x2="1" y2="0"><stop offset="0%" stop-color="#A855F7"/><stop offset="100%" stop-color="#00D4FF"/></linearGradient><linearGradient id="tw-cov-g2" x1="1" y1="0" x2="0" y2="1"><stop offset="0%" stop-color="#A855F7"/><stop offset="100%" stop-color="#00D4FF"/></linearGradient><radialGradient id="tw-cov-glow-purple" cx="0.5" cy="0.38" r="0.45"><stop offset="0%" stop-color="#A855F7" stop-opacity="0.14"/><stop offset="60%" stop-color="#A855F7" stop-opacity="0.04"/><stop offset="100%" stop-color="#A855F7" stop-opacity="0"/></radialGradient><radialGradient id="tw-cov-glow-cyan" cx="0.65" cy="0.55" r="0.4"><stop offset="0%" stop-color="#00D4FF" stop-opacity="0.08"/><stop offset="100%" stop-color="#00D4FF" stop-opacity="0"/></radialGradient><radialGradient id="tw-cov-vignette" cx="0.5" cy="0.5" r="0.7"><stop offset="0%" stop-color="#0A0A0F" stop-opacity="0"/><stop offset="100%" stop-color="#0A0A0F" stop-opacity="0.6"/></radialGradient><pattern id="tw-cov-grid" width="60" height="60" patternUnits="userSpaceOnUse"><line x1="60" y1="0" x2="60" y2="60" stroke="#A855F7" stroke-width="0.5" opacity="0.06"/><line x1="0" y1="60" x2="60" y2="60" stroke="#A855F7" stroke-width="0.5" opacity="0.06"/></pattern></defs><rect width="1500" height="500" fill="#0A0A0F"/><rect width="1500" height="500" fill="url(#tw-cov-grid)"/><rect width="1500" height="500" fill="url(#tw-cov-glow-purple)"/><rect width="1500" height="500" fill="url(#tw-cov-glow-cyan)"/><rect width="1500" height="500" fill="url(#tw-cov-vignette)"/><line x1="0" y1="1" x2="1500" y2="1" stroke="#00D4FF" stroke-width="1.5" opacity="0.12"/><line x1="0" y1="499" x2="1500" y2="499" stroke="#A855F7" stroke-width="1.5" opacity="0.15"/><line x1="0" y1="500" x2="300" y2="0" stroke="#A855F7" stroke-width="0.5" opacity="0.05"/><line x1="1200" y1="500" x2="1500" y2="0" stroke="#00D4FF" stroke-width="0.5" opacity="0.04"/><circle cx="750" cy="170" r="100" fill="#A855F7" opacity="0.06" filter="url(#tw-cov-glow-lg)"/><g filter="url(#tw-cov-glow)"><line x1="750" y1="170" x2="690" y2="104" stroke="url(#tw-cov-g1)" stroke-width="4.2" opacity="0.6"/><line x1="750" y1="170" x2="816" y2="92" stroke="url(#tw-cov-g1)" stroke-width="4.2" opacity="0.6"/><line x1="750" y1="170" x2="678" y2="236" stroke="url(#tw-cov-g2)" stroke-width="4.2" opacity="0.6"/><line x1="750" y1="170" x2="828" y2="218" stroke="url(#tw-cov-g2)" stroke-width="4.2" opacity="0.6"/><line x1="750" y1="170" x2="798" y2="152" stroke="url(#tw-cov-g1)" stroke-width="3.6" opacity="0.5"/><line x1="798" y1="152" x2="846" y2="104" stroke="#00D4FF" stroke-width="3" opacity="0.35"/><line x1="690" y1="104" x2="816" y2="92" stroke="#22D3EE" stroke-width="2.1" opacity="0.22"/><line x1="678" y1="236" x2="828" y2="218" stroke="#22D3EE" stroke-width="2.1" opacity="0.22"/><circle cx="750" cy="170" r="16.5" fill="#A855F7"/><circle cx="690" cy="104" r="10.5" fill="#00D4FF" opacity="0.75"/><circle cx="816" cy="92" r="9" fill="#22D3EE" opacity="0.7"/><circle cx="678" cy="236" r="9" fill="#00D4FF" opacity="0.65"/><circle cx="828" cy="218" r="10.5" fill="#22D3EE" opacity="0.75"/><circle cx="798" cy="152" r="6.6" fill="#67E8F9" opacity="0.55"/><circle cx="846" cy="104" r="6" fill="#00D4FF" opacity="0.4"/></g><circle cx="754.5" cy="165.5" r="6" fill="#fff" opacity="0.6"/><text x="750" y="370" text-anchor="middle" font-family="'Archivo Black', 'Oswald', 'Inter', sans-serif" font-size="52" letter-spacing="6" font-weight="400" filter="url(#tw-cov-glow)"><tspan fill="#A855F7">OP</tspan><tspan fill="#E0E6ED">STELLAR</tspan></text><text x="750" y="410" text-anchor="middle" font-family="'Inter', system-ui, sans-serif" font-size="14" fill="#E0E6ED" opacity="0.3" letter-spacing="4">SPACE INTELLIGENCE, BUILT BY AI AGENTS</text></svg>