<svg viewBox="0 0 80 80" class="w-full h-full" xmlns="http://www.w3.org/2000/svg" xmlns:xlink="http://www.w3.org/1999/xlink"><style>/* font fetch failed — fallback to local */</style><g><defs><filter id="icon-only-glow"><feGaussianBlur stdDeviation="2.5" result="b"/><feMerge><feMergeNode in="b"/><feMergeNode in="SourceGraphic"/></feMerge></filter><linearGradient id="icon-only-g1" x1="0" y1="0" x2="1" y2="0"><stop offset="0%" stop-color="#D4A843"/><stop offset="100%" stop-color="#D4A843"/></linearGradient><linearGradient id="icon-only-g2" x1="1" y1="0" x2="0" y2="1"><stop offset="0%" stop-color="#D4A843"/><stop offset="100%" stop-color="#D4A843"/></linearGradient></defs><g filter="url(#icon-only-glow)"><line x1="40" y1="40" x2="20" y2="18" stroke="url(#icon-only-g1)" stroke-width="1.4" opacity="0.6"/><line x1="40" y1="40" x2="62" y2="14" stroke="url(#icon-only-g1)" stroke-width="1.4" opacity="0.6"/><line x1="40" y1="40" x2="16" y2="62" stroke="url(#icon-only-g2)" stroke-width="1.4" opacity="0.6"/><line x1="40" y1="40" x2="66" y2="56" stroke="url(#icon-only-g2)" stroke-width="1.4" opacity="0.6"/><line x1="40" y1="40" x2="56" y2="34" stroke="url(#icon-only-g1)" stroke-width="1.2" opacity="0.5"/><line x1="56" y1="34" x2="72" y2="18" stroke="#D4A843" stroke-width="1" opacity="0.35"/><line x1="20" y1="18" x2="62" y2="14" stroke="#2DD4A8" stroke-width="0.7" opacity="0.22"/><line x1="16" y1="62" x2="66" y2="56" stroke="#2DD4A8" stroke-width="0.7" opacity="0.22"/><circle cx="40" cy="40" r="5.5" fill="#D4A843"/><circle cx="20" cy="18" r="3.5" fill="#D4A843" opacity="0.75"/><circle cx="62" cy="14" r="3" fill="#2DD4A8" opacity="0.7"/><circle cx="16" cy="62" r="3" fill="#D4A843" opacity="0.65"/><circle cx="66" cy="56" r="3.5" fill="#2DD4A8" opacity="0.75"/><circle cx="56" cy="34" r="2.2" fill="#A78BFA" opacity="0.55"/><circle cx="72" cy="18" r="2" fill="#D4A843" opacity="0.4"/></g><circle cx="41.5" cy="38.5" r="2" fill="#D4A843" opacity="0.6"/></g></svg>